HIERARCHY
ROOT Hips
{
	OFFSET 0.000000 0.000000 0.000000 
	CHANNELS 6 Xposition Yposition Zposition Zrotation Yrotation Xrotation
	JOINT LeftUpLeg
	{
		OFFSET 1.363060 -1.794630 0.839290 
		CHANNELS 3 Zrotation Yrotation Xrotation
		JOINT LeftLeg
		{
			OFFSET 2.448110 -6.726130 0.000000 
			CHANNELS 3 Zrotation Yrotation Xrotation
			JOINT LeftFoot
			{
				OFFSET 2.562200 -7.039590 0.000000 
				CHANNELS 3 Zrotation Yrotation Xrotation
				JOINT LeftToeBase
				{
					OFFSET 0.157640 -0.433110 2.322550 
					CHANNELS 3 Zrotation Yrotation Xrotation
					End Site
					{
						OFFSET 0.000000 0.000000 0.000000 
					}
				}
			}
		}
	}
	JOINT RightUpLeg
	{
		OFFSET -1.305520 -1.794630 0.839290 
		CHANNELS 3 Zrotation Yrotation Xrotation
		JOINT RightLeg
		{
			OFFSET -2.542530 -6.985550 0.000000 
			CHANNELS 3 Zrotation Yrotation Xrotation
			JOINT RightFoot
			{
				OFFSET -2.568260 -7.056230 0.000000 
				CHANNELS 3 Zrotation Yrotation Xrotation
				JOINT RightToeBase
				{
					OFFSET -0.164730 -0.452590 2.363150 
					CHANNELS 3 Zrotation Yrotation Xrotation
					End Site
					{
						OFFSET 0.000000 0.000000 0.000000 
					}
				}
			}
		}
	}
	JOINT Spine
	{
		OFFSET 0.028270 2.035590 -0.193380 
		CHANNELS 3 Zrotation Yrotation Xrotation
		JOINT Spine1
		{
			OFFSET 0.056720 2.048850 -0.042750 
			CHANNELS 3 Zrotation Yrotation Xrotation
			JOINT Neck1
			{
				OFFSET -0.054170 1.746240 0.172020 
				CHANNELS 3 Zrotation Yrotation Xrotation
				JOINT Head
				{
					OFFSET 0.104070 1.761360 -0.123970 
					CHANNELS 3 Zrotation Yrotation Xrotation
					End Site
					{
						OFFSET 0.000000 0.000000 0.000000 
					}
				}
			}
			JOINT LeftArm
			{
				OFFSET 3.362410 1.200890 -0.311210 
				CHANNELS 3 Zrotation Yrotation Xrotation
				JOINT LeftForeArm
				{
					OFFSET 4.983000 -0.000000 -0.000000 
					CHANNELS 3 Zrotation Yrotation Xrotation
					JOINT LeftHand
					{
						OFFSET 3.483560 -0.000000 -0.000000 
						CHANNELS 3 Zrotation Yrotation Xrotation
						JOINT LeftHandIndex1
						{
							OFFSET 0.715260 -0.000000 -0.000000 
							CHANNELS 3 Zrotation Yrotation Xrotation
							End Site
							{
								OFFSET 0.000000 0.000000 0.000000 
							}
						}
					}
				}
			}
			JOINT RightArm
			{
				OFFSET -3.136600 1.374050 -0.404650 
				CHANNELS 3 Zrotation Yrotation Xrotation
				JOINT RightForeArm
				{
					OFFSET -5.241900 -0.000000 -0.000000 
					CHANNELS 3 Zrotation Yrotation Xrotation
					JOINT RightHand
					{
						OFFSET -3.444170 -0.000000 -0.000000 
						CHANNELS 3 Zrotation Yrotation Xrotation
						JOINT RightHandIndex1
						{
							OFFSET -0.622530 -0.000000 -0.000000 
							CHANNELS 3 Zrotation Yrotation Xrotation
							End Site
							{
								OFFSET 0.000000 0.000000 0.000000 
							}
						}
					}
				}
			}
		}
	}
}
MOTION
Frames: 18
Frame Time: 0.041667
9.846293 15.303524 -13.303153 12.038918 16.440356 21.791478 -2.808904 13.325252 -39.198986 7.958244 15.859998 50.701853 2.668219 -3.237047 3.791841 2.973400 -10.651900 -31.114700 -18.022620 -13.052646 -53.234536 -9.499521 -14.644092 49.929057 -0.011107 -5.869923 18.764320 -3.401100 11.317700 -33.359000 2.352455 9.359656 -3.758646 2.081623 3.616769 -15.462317 7.670735 -14.282909 -1.929174 2.961100 -7.102000 7.169600 -108.797202 -40.150466 97.851405 51.922036 -49.129145 -33.107134 -1.422195 -4.288280 9.151946 -7.125000 0.000000 0.000000 32.321269 63.821895 -28.198174 -104.144367 58.047640 -82.179019 -0.170694 1.527664 -39.209852 7.125000 0.000000 0.000000 
9.852042 15.272114 -13.324129 11.414375 16.637616 21.615341 -2.262507 13.512479 -39.518114 8.183794 15.949064 51.212739 2.753237 -3.495256 3.593514 2.965700 -10.639300 -31.072700 -17.387453 -13.068152 -53.412772 -9.506876 -14.648513 50.030910 -0.010124 -5.836789 18.726217 -3.438500 11.373100 -33.548900 2.366999 9.223703 -3.765822 2.017953 3.502715 -15.330339 7.911988 -14.191685 -1.902390 3.090600 -7.022000 7.278800 -108.516118 -40.386557 97.229055 52.313974 -49.280817 -33.463270 -1.466800 -4.270842 9.397212 -7.125000 0.000000 0.000000 31.303690 63.667921 -26.587144 -105.931471 58.001612 -83.345823 -0.152248 1.410436 -36.917526 7.125000 0.000000 0.000000 
9.859283 15.240277 -13.344573 10.809577 16.723138 21.278383 -1.720633 13.730394 -39.700792 8.456593 16.069866 51.859679 2.792268 -3.624723 3.171294 3.134000 -10.908800 -31.973000 -16.890141 -12.941850 -53.414737 -9.519048 -14.664306 50.126813 0.004762 -5.855112 18.713096 -3.396600 11.311000 -33.335900 2.387227 9.094855 -3.757852 2.070427 3.404615 -15.352883 8.242574 -13.982654 -2.129928 3.337900 -6.893600 7.096400 -108.045030 -40.391397 96.270809 53.338277 -49.658710 -34.369137 -1.239415 -4.285427 9.928385 -7.125000 0.000000 0.000000 30.381197 63.677225 -24.689778 -107.132690 57.955610 -84.053212 -0.132768 1.333987 -35.370791 7.125000 0.000000 0.000000 
9.865033 15.212700 -13.364697 10.509358 16.654681 21.245172 -1.567350 13.959705 -40.134629 8.713737 16.189538 52.530625 2.721976 -3.489851 2.681595 3.378300 -11.283600 -33.242300 -16.727379 -12.751544 -53.611167 -9.546925 -14.683896 50.254896 0.029178 -5.889014 18.653259 -3.334300 11.217500 -33.017100 2.359011 8.960281 -3.750816 2.016134 3.337121 -15.254497 8.425180 -13.862705 -2.360605 3.463000 -6.819200 6.877800 -107.744815 -40.353291 95.430952 54.774452 -50.200707 -35.704120 -1.423222 -4.198638 10.011033 -7.125000 0.000000 0.000000 29.809804 63.570218 -22.910030 -108.587036 57.819825 -84.960156 -0.107214 1.267054 -34.694296 7.125000 0.000000 0.000000 
9.874509 15.181716 -13.385460 10.160490 16.687537 21.453330 -1.362830 14.072362 -40.722754 8.967891 16.299642 53.196688 2.803056 -3.758104 2.203763 3.338100 -11.223200 -33.036300 -16.400178 -12.784658 -54.118817 -9.564799 -14.693693 50.421892 -0.014223 -5.722908 18.568378 -3.323500 11.201300 -32.961600 2.309781 8.703343 -3.745062 1.817629 3.213750 -14.896748 8.639816 -13.908349 -2.483009 3.541000 -6.805200 6.832500 -107.627918 -40.739412 94.909577 55.134608 -50.316897 -36.017018 -1.302165 -4.192168 10.271317 -7.125000 0.000000 0.000000 30.090812 63.515374 -20.918370 -110.164416 57.565270 -86.014723 -0.097346 1.167286 -34.187658 7.125000 0.000000 0.000000 
9.884837 15.147111 -13.404412 9.945435 16.704010 21.508900 -1.192731 14.093532 -41.049666 9.191590 16.407863 53.811047 2.967742 -4.232819 1.752881 3.230500 -11.059200 -32.479900 -16.214143 -12.904509 -54.482948 -9.589324 -14.715994 50.629862 -0.121080 -5.400117 18.506883 -3.422000 11.348700 -33.465100 2.261215 8.367456 -3.734713 1.763765 3.059744 -14.652926 9.104921 -14.070673 -2.576296 3.768200 -6.828000 6.892800 -107.477006 -41.207774 94.708819 54.771990 -50.172277 -35.651354 -1.348378 -4.144440 11.617865 -7.125000 0.000000 0.000000 30.242449 63.480669 -19.043656 -111.256686 57.365495 -86.734869 -0.112821 1.074962 -33.889053 7.125000 0.000000 0.000000 
9.885689 15.116233 -13.425388 9.899060 16.765046 21.368787 -1.105420 14.059190 -41.173766 9.377541 16.505225 54.348575 3.087083 -4.588749 1.410784 3.253400 -11.094400 -32.598900 -16.264688 -12.944812 -54.550141 -9.641572 -14.762239 50.871517 -0.189644 -5.183830 18.397327 -3.528500 11.505100 -34.002900 2.192283 7.946439 -3.727356 1.586903 2.868268 -14.515791 9.465399 -13.976680 -2.654409 3.947100 -6.733200 6.890400 -107.131758 -41.630671 94.016535 54.705870 -50.120192 -35.544702 -1.212242 -4.145784 11.916973 -7.125000 0.000000 0.000000 28.772236 63.356323 -18.740218 -111.423507 57.427249 -86.766656 -0.112289 1.026639 -34.559380 7.125000 0.000000 0.000000 
9.882921 15.088549 -13.448813 9.523947 16.999980 21.161615 -0.675198 13.987854 -41.288692 9.582339 16.584744 54.834473 3.057221 -4.492873 0.796929 3.464000 -11.410800 -33.678300 -15.985306 -12.942919 -54.650151 -9.703825 -14.820716 51.154988 -0.202370 -5.085878 18.189369 -3.434700 11.367500 -33.529400 2.120013 7.526541 -3.700263 1.058104 2.658599 -14.186597 9.471384 -13.424876 -2.769340 3.919900 -6.431200 6.700400 -106.796260 -42.052184 93.414464 54.753732 -50.126560 -35.564607 -1.163437 -4.131649 12.367516 -7.125000 0.000000 0.000000 28.508061 63.672769 -18.431350 -111.362665 57.462250 -86.724726 -0.136861 0.914994 -34.392170 7.125000 0.000000 0.000000 
9.883879 15.058842 -13.473516 9.021265 17.218273 21.036247 -0.185549 13.942045 -41.502212 9.786274 16.666341 55.307001 2.952541 -4.203389 0.229891 3.630100 -11.651200 -34.508900 -15.569878 -12.973472 -54.920975 -9.769096 -14.873662 51.472736 -0.234062 -4.942085 18.055732 -3.385900 11.294900 -33.281200 2.092456 7.293692 -3.667094 1.061172 2.526634 -14.034900 10.401758 -13.718822 -2.909001 4.538400 -6.485500 6.813100 -107.164733 -42.271818 93.137828 54.996850 -50.190195 -35.820647 -1.401071 -4.039463 12.951879 -7.125000 0.000000 0.000000 28.198640 63.850756 -18.207340 -111.321759 57.514729 -86.716145 -0.206318 0.788405 -33.087002 7.125000 0.000000 0.000000 
9.880365 15.022533 -13.500135 8.817558 17.321311 21.087054 0.014212 13.896333 -41.896321 9.971659 16.763993 55.813394 2.952001 -4.250582 -0.055760 3.712400 -11.767600 -34.914600 -15.420071 -13.023720 -55.308571 -9.856264 -14.917277 51.823634 -0.268027 -4.811054 18.010835 -3.508000 11.475200 -33.899800 2.138688 7.222995 -3.680111 1.634465 2.517656 -14.143193 10.631249 -13.850486 -2.853095 4.648400 -6.533500 6.983100 -107.814780 -42.441490 92.891470 55.367533 -50.301382 -36.141556 -1.443029 -3.991369 13.713503 -7.125000 0.000000 0.000000 28.167551 63.803761 -17.257652 -111.287801 57.506293 -86.619144 -0.179428 0.696920 -32.308109 7.125000 0.000000 0.000000 
9.875574 14.989100 -13.529309 8.680799 17.444469 21.019571 0.236068 13.707304 -42.137398 10.154408 16.870037 56.326096 3.008588 -4.426319 -0.469101 3.789900 -11.875500 -35.292800 -15.378256 -13.060874 -55.539407 -9.936203 -14.956688 52.136543 -0.315316 -4.660671 18.005916 -3.486700 11.444000 -33.792400 2.194009 7.084816 -3.704225 2.275187 2.487999 -14.397263 10.677087 -13.756648 -2.889546 4.638300 -6.495600 6.977500 -108.147517 -42.825491 92.460368 55.468332 -50.323463 -36.200991 -1.468545 -3.964709 14.202221 -7.125000 0.000000 0.000000 28.803055 63.824391 -15.888630 -111.655752 57.387319 -86.835437 -0.186057 0.593542 -30.916210 7.125000 0.000000 0.000000 
9.876319 14.962587 -13.559868 8.380404 17.698960 20.779024 0.641298 13.441276 -42.173638 10.325206 16.961537 56.782332 3.160881 -4.876309 -0.672570 3.585800 -11.587800 -34.289000 -15.173597 -13.142596 -55.577320 -9.985388 -14.988739 52.341948 -0.353422 -4.554243 18.057025 -3.414400 11.337400 -33.426300 2.188467 7.015996 -3.701883 2.343241 2.445563 -14.484666 10.963191 -13.830488 -2.999603 4.764200 -6.503500 7.002300 -108.611578 -43.325435 92.732842 55.280110 -50.210543 -35.990486 -1.337599 -3.994651 14.396436 -7.125000 0.000000 0.000000 27.930629 63.689790 -16.215391 -112.156773 57.347594 -87.172075 -0.225798 0.542496 -29.237788 7.125000 0.000000 0.000000 
9.879939 14.933413 -13.592130 8.087229 17.940369 20.612571 0.993873 13.206054 -42.301906 10.482957 17.041465 57.226725 3.555204 -6.110837 -0.333906 3.065700 -10.800700 -31.610500 -14.930869 -13.274219 -55.696478 -10.025767 -15.011289 52.499978 -0.366907 -4.520248 18.141405 -3.415300 11.338800 -33.431200 2.158791 6.849119 -3.703805 2.293220 2.351105 -14.590688 11.427732 -13.933711 -3.129451 5.122500 -6.523000 6.979500 -108.988871 -43.589969 92.840260 55.314373 -50.149774 -35.953969 -1.100227 -4.037677 14.707351 -7.125000 0.000000 0.000000 27.902033 63.533673 -15.777035 -112.556725 57.269901 -87.445596 -0.238839 0.518919 -27.506227 7.125000 0.000000 0.000000 
9.882921 14.909775 -13.625883 7.778579 18.165404 20.430657 1.306553 13.032201 -42.410469 10.628196 17.110431 57.630864 3.745026 -6.771613 -0.148165 2.709300 -10.208900 -29.655800 -14.762971 -13.301787 -55.719029 -10.052049 -15.042853 52.635935 -0.404168 -4.422564 18.200871 -3.400100 11.316100 -33.353500 2.042563 7.191677 -3.631168 1.505693 2.477686 -13.977483 11.512524 -14.893296 -3.064629 4.721900 -6.909700 7.422000 -110.385072 -44.261623 94.813305 55.375876 -50.098279 -35.967246 -0.922972 -4.089429 15.094813 -7.125000 0.000000 0.000000 25.900981 62.526760 -18.142942 -112.758265 57.353539 -87.638391 -0.259017 0.502483 -25.922926 7.125000 0.000000 0.000000 
9.880898 14.876128 -13.656655 7.615133 18.303844 20.256518 1.463917 12.946345 -42.580494 10.775784 17.189666 58.033602 3.539897 -6.172413 -0.630720 2.752900 -10.283900 -29.901200 -14.670863 -13.347937 -55.830852 -10.122852 -15.073376 52.886395 -0.410949 -4.373652 18.135661 -3.512400 11.481600 -33.921800 2.135904 6.654202 -3.684859 2.449137 2.271386 -14.550921 11.701534 -14.411765 -3.089925 5.089300 -6.722700 7.133600 -110.172840 -43.953496 92.865246 55.379082 -50.092842 -35.906897 -0.941087 -4.065968 15.944300 -7.125000 0.000000 0.000000 27.873262 63.093565 -14.667585 -113.250194 57.137256 -87.907867 -0.302782 0.410268 -25.388903 7.125000 0.000000 0.000000 
9.871954 14.840139 -13.682103 7.494475 18.587347 20.125958 1.624552 12.732111 -42.693989 10.908885 17.258828 58.398187 3.166177 -5.048528 -1.431671 3.188500 -10.994100 -32.259900 -14.536235 -13.558459 -55.985543 -10.224909 -15.133858 53.208679 -0.364455 -4.452485 17.986744 -3.689600 11.735500 -34.802500 2.043807 6.729033 -3.659524 2.014396 2.301821 -14.376151 11.681346 -14.656185 -3.140872 4.930500 -6.826300 7.157600 -111.006001 -44.362071 94.093621 55.231855 -50.036014 -35.842564 -1.080477 -4.043400 16.011591 -7.125000 0.000000 0.000000 26.383889 62.248192 -15.709489 -113.816125 57.111291 -88.317746 -0.365651 0.329715 -25.439398 7.125000 0.000000 0.000000 
9.860561 14.804896 -13.705421 7.219080 18.948244 19.888294 2.007651 12.419159 -42.703845 11.052240 17.324670 58.757470 2.699815 -3.636960 -2.604323 3.959300 -12.106100 -36.108200 -14.349071 -13.689470 -56.021955 -10.316809 -15.196567 53.526653 -0.352567 -4.449356 17.886238 -3.664300 11.699700 -34.677900 1.934914 6.684839 -3.655610 1.451992 2.247990 -14.329915 12.344531 -15.328098 -3.074292 5.110700 -7.060600 7.465300 -111.418594 -44.814549 95.106818 55.085778 -49.959333 -35.782028 -1.250469 -4.000651 16.017058 -7.125000 0.000000 0.000000 25.140394 61.418632 -16.448475 -114.538466 57.002227 -88.829722 -0.384293 0.270672 -25.479796 7.125000 0.000000 0.000000 
9.858644 14.773592 -13.731721 7.022998 19.216188 19.734845 2.268933 12.186996 -42.766042 11.160923 17.381257 59.059461 3.109104 -4.868983 -2.175595 3.581300 -11.581400 -34.266800 -14.227945 -13.862450 -56.110555 -10.385848 -15.236590 53.785073 -0.396400 -4.331851 17.961880 -3.572300 11.568400 -34.221600 1.909738 6.488585 -3.666804 1.440103 2.162471 -14.477073 12.349728 -14.857752 -3.241082 5.214600 -6.851600 7.185800 -111.650127 -45.044704 95.167753 54.954197 -49.904263 -35.668130 -1.342833 -3.962083 16.427201 -7.125000 0.000000 0.000000 25.025077 61.188102 -15.482645 -115.734102 56.716082 -89.622173 -0.428129 0.194541 -25.349922 7.125000 0.000000 0.000000 
